<svg width="818" height="339" viewBox="0 0 818 339" fill="none" xmlns="http://www.w3.org/2000/svg">
<rect width="818" height="339" fill="#E5E5E5"/>
<rect width="818" height="339" fill="black"/>
<path fill-rule="evenodd" clip-rule="evenodd" d="M168.959 191.846C168.959 184.588 164.522 176.523 149.077 176.523H130.345V206.847H147.434C162.879 206.847 168.959 200.395 168.959 191.846ZM130.345 157.651H146.119C160.743 157.651 163.701 151.037 163.701 144.908C163.701 137.004 158.443 132.004 146.119 132.004H130.345V157.651ZM190.977 193.298C190.977 214.589 174.052 225.881 152.363 225.881H109.313V112.97H148.913C165.837 112.97 185.226 122.165 185.226 142.327C185.226 151.682 180.954 160.232 172.081 164.748V166.038C182.761 169.103 190.977 178.62 190.977 193.298Z" fill="#FFFFFE"/>
<path fill-rule="evenodd" clip-rule="evenodd" d="M249.364 144.424V165.071C247.721 164.748 244.927 164.425 242.134 164.425C230.632 164.425 218.637 170.232 218.637 185.071V225.881H196.784V145.231H213.544L216.501 154.102H219.13C222.745 150.553 230.797 144.424 244.27 144.424H249.364Z" fill="#FFFFFE"/>
<path fill-rule="evenodd" clip-rule="evenodd" d="M300.177 192.008V190.395C285.224 192.008 270.436 193.782 270.436 202.17C270.436 214.428 298.862 213.461 300.177 192.008ZM330.082 210.396V225.881H325.152C315.622 225.881 308.885 222.493 306.092 215.557C301.162 222.171 292.947 226.687 280.13 226.687C261.563 226.687 249.732 217.332 249.732 202.815C249.732 177.652 284.731 175.394 300.505 174.587C300.177 165.231 294.918 161.845 286.538 161.845C274.872 161.845 274.051 168.78 274.051 168.78H253.512C254.99 154.425 266.985 144.424 287.031 144.424C306.585 144.424 320.387 153.941 320.387 177.329V198.782C320.387 208.137 323.838 210.396 330.082 210.396Z" fill="#FFFFFE"/>
<path fill-rule="evenodd" clip-rule="evenodd" d="M404.87 145.231L378.252 225.881H346.375L319.756 145.231H341.61L360.67 204.589H363.957L383.017 145.231H404.87Z" fill="#FFFFFE"/>
<path fill-rule="evenodd" clip-rule="evenodd" d="M463.27 185.556C463.27 172.974 455.712 163.135 443.224 163.135C430.736 163.135 422.356 172.974 422.356 185.556C422.356 198.137 430.736 207.977 443.224 207.977C455.712 207.977 463.27 198.137 463.27 185.556ZM400.831 185.717C400.831 159.909 421.206 144.424 443.224 144.424C465.406 144.424 484.795 160.07 484.795 185.394C484.795 211.041 464.749 226.687 442.567 226.687C420.22 226.687 400.831 211.041 400.831 185.717Z" fill="#FFFFFE"/>
<path fill-rule="evenodd" clip-rule="evenodd" d="M569.196 145.231V225.881H552.764L549.807 216.848H547.67C544.384 220.88 537.154 226.687 523.681 226.687C501.827 226.687 490.654 211.525 490.654 188.943V145.231H513V184.104C513 194.104 513.822 207.977 527.953 207.977C535.183 207.977 547.013 204.266 547.013 183.136V145.231H569.196Z" fill="#FFFFFE"/>
<path fill-rule="evenodd" clip-rule="evenodd" d="M628.927 144.424V165.071C627.283 164.748 624.49 164.425 621.697 164.425C610.195 164.425 598.2 170.232 598.2 185.071V225.881H576.346V145.231H593.106L596.064 154.102H598.693C602.308 150.553 610.359 144.424 623.833 144.424H628.927Z" fill="#FFFFFE"/>
<path fill-rule="evenodd" clip-rule="evenodd" d="M651.001 175.394H687.971C685.506 165.877 678.77 162.005 670.554 162.005C661.517 162.005 654.287 167.006 651.001 175.394ZM709.66 191.685H649.686C652.151 203.944 662.338 208.46 671.211 208.46C682.384 208.46 687.149 201.685 687.149 201.685H707.853C701.609 217.815 686.657 226.687 670.554 226.687C648.372 226.687 628.983 210.073 628.983 184.911C628.983 159.909 648.207 144.424 669.897 144.424C690.929 144.424 712.289 158.779 709.66 191.685Z" fill="#FFFFFE"/>
</svg>
